<svg width="20" height="18" viewBox="0 0 20 18" fill="none" xmlns="http://www.w3.org/2000/svg">
<path d="M10 6.29993V16.4999M10 6.29993C10 4.61977 10 3.78004 10.327 3.13831C10.6146 2.57382 11.0732 2.11472 11.6377 1.8271C12.2794 1.50012 13.1196 1.50012 14.7998 1.50012H17.3998C17.9599 1.50012 18.2401 1.50012 18.454 1.60912C18.6422 1.70499 18.7948 1.85786 18.8906 2.04602C18.9996 2.25993 19 2.54017 19 3.10022V11.9002C19 12.4603 18.9996 12.7399 18.8906 12.9538C18.7948 13.142 18.6425 13.2954 18.4543 13.3912C18.2406 13.5001 17.961 13.5001 17.402 13.5001H14.5693C13.6301 13.5001 13.1597 13.5001 12.7334 13.6296C12.356 13.7442 12.0057 13.9318 11.701 14.1823C11.3568 14.4651 11.096 14.8559 10.575 15.6373L10 16.4999M10 6.29993C10 4.61977 9.99983 3.78004 9.67285 3.13831C9.38523 2.57382 8.92626 2.11472 8.36178 1.8271C7.72004 1.50012 6.87977 1.50012 5.19961 1.50012H2.59961C2.03956 1.50012 1.75981 1.50012 1.5459 1.60912C1.35774 1.70499 1.20487 1.85786 1.10899 2.04602C1 2.25993 1 2.54017 1 3.10022V11.9002C1 12.4603 1 12.7399 1.10899 12.9538C1.20487 13.142 1.35774 13.2954 1.5459 13.3912C1.7596 13.5001 2.03901 13.5001 2.59797 13.5001H5.43073C6.36994 13.5001 6.83942 13.5001 7.26569 13.6296C7.64306 13.7442 7.99512 13.9318 8.2998 14.1823C8.64257 14.464 8.90172 14.8527 9.41848 15.6278L10 16.4999" stroke="white" stroke-width="2" stroke-linecap="round" stroke-linejoin="round"/>
</svg>
