<?xml version="1.0" encoding="UTF-8"?>
<svg id="_Слой_1" data-name="Слой 1" xmlns="http://www.w3.org/2000/svg" viewBox="0 0 283.11 123.38">
  <defs>
    <style>
      .cls-1 {
        fill: #1c2848;
      }
    </style>
  </defs>
  <g>
    <path class="cls-1" d="M4.27,105.63v9.91H0v-24.31h4.27v10.64h10.46l6.83-10.64h5l-7.93,12.11,9.54,12.2h-5.23l-7.8-9.91H4.27Z"/>
    <path class="cls-1" d="M52.19,108.75c-.03,2.6-.83,4.57-2.41,5.92s-3.86,2.02-6.86,2.02h-1.56c-3,0-5.32-.68-6.97-2.04s-2.51-3.43-2.57-6.21c0-2.72.84-4.73,2.52-6.03,1.68-1.3,4.02-1.95,7.02-1.95h14.08c-.15-1.35-.54-2.45-1.15-3.33s-1.33-1.56-2.15-2.06-1.72-.86-2.68-1.06c-.96-.2-1.86-.3-2.68-.3h-.46c-.83,0-1.68.06-2.57.18-.89.12-1.74.34-2.57.66s-1.57.76-2.25,1.31c-.67.55-1.18,1.27-1.51,2.16h-4.49c.15-1.19.59-2.28,1.31-3.26.72-.98,1.67-1.83,2.84-2.54,1.18-.72,2.54-1.28,4.08-1.67,1.54-.4,3.19-.6,4.93-.6h.37c2.38,0,4.42.28,6.1.83,1.68.55,3.06,1.39,4.13,2.52,1.07,1.13,1.85,2.57,2.34,4.31.49,1.74.75,3.81.78,6.19v11.74h-4.27v-11.42l-4.72-.05c.92,1.25,1.38,2.81,1.38,4.68ZM36.09,108.43c.03,1.47.46,2.58,1.28,3.33s2.15,1.12,3.99,1.12h1.56c1.77,0,3.07-.37,3.9-1.1s1.27-1.85,1.33-3.35c-.06-1.5-.49-2.6-1.28-3.3-.8-.7-2.11-1.05-3.94-1.05h-1.56c-1.84,0-3.16.35-3.99,1.05-.83.7-1.25,1.8-1.28,3.3Z"/>
    <path class="cls-1" d="M81.91,116.45c-2.17.03-4.2-.28-6.08-.92-1.88-.64-3.51-1.59-4.88-2.84v10.69l-4.27-.05v-32.1h4.27l-.23,2.98c1.38-1.31,3-2.34,4.88-3.07,1.88-.73,3.94-1.1,6.17-1.1,2.08,0,4.01.27,5.78.8s3.31,1.34,4.61,2.41c1.3,1.07,2.32,2.42,3.07,4.06.75,1.64,1.14,3.57,1.17,5.8,0,2.29-.37,4.28-1.1,5.96s-1.74,3.07-3.03,4.17c-1.28,1.1-2.81,1.91-4.59,2.43-1.77.52-3.7.78-5.78.78ZM71,103.25c.03,1.68.31,3.1.85,4.26.53,1.16,1.27,2.11,2.2,2.84.93.73,2.05,1.27,3.35,1.61,1.3.34,2.73.5,4.29.5s2.93-.17,4.2-.5c1.27-.34,2.35-.87,3.26-1.61.9-.73,1.61-1.68,2.11-2.84.5-1.16.77-2.58.8-4.26-.03-1.68-.3-3.11-.8-4.29-.5-1.18-1.2-2.14-2.09-2.89-.89-.75-1.96-1.29-3.21-1.63-1.25-.34-2.64-.5-4.17-.5s-2.99.18-4.29.53c-1.3.35-2.43.9-3.39,1.65-.96.75-1.71,1.71-2.25,2.89-.54,1.18-.82,2.59-.85,4.24Z"/>
    <path class="cls-1" d="M126.31,107.56c-.21,1.53-.71,2.87-1.49,4.01-.78,1.15-1.77,2.1-2.98,2.87-1.21.77-2.59,1.34-4.15,1.72-1.56.38-3.24.57-5.05.57-2.2,0-4.18-.27-5.94-.8-1.76-.54-3.26-1.35-4.52-2.45-1.25-1.1-2.22-2.49-2.89-4.17-.67-1.68-1.02-3.65-1.05-5.92,0-2.26.34-4.24,1.01-5.94.67-1.7,1.63-3.1,2.87-4.22,1.24-1.12,2.74-1.96,4.52-2.52,1.77-.57,3.74-.85,5.92-.85,1.8,0,3.49.2,5.07.6,1.57.4,2.97.98,4.2,1.74s2.23,1.72,3.03,2.87,1.3,2.48,1.51,4.01h-4.59c-.18-.89-.54-1.67-1.08-2.34s-1.21-1.24-2.02-1.7-1.74-.81-2.8-1.06c-1.05-.24-2.18-.37-3.37-.37-3.24.03-5.69.83-7.34,2.38-1.65,1.56-2.51,4.01-2.57,7.34.06,3.3.94,5.73,2.64,7.29s4.17,2.34,7.41,2.34c2.41,0,4.45-.44,6.1-1.33,1.65-.89,2.66-2.25,3.03-4.08h4.54Z"/>
    <path class="cls-1" d="M174.92,108.75c-.03,2.6-.83,4.57-2.41,5.92s-3.86,2.02-6.86,2.02h-1.56c-3,0-5.32-.68-6.97-2.04s-2.51-3.43-2.57-6.21c0-2.72.84-4.73,2.52-6.03,1.68-1.3,4.02-1.95,7.02-1.95h14.08c-.15-1.35-.54-2.45-1.15-3.33s-1.33-1.56-2.15-2.06-1.72-.86-2.68-1.06c-.96-.2-1.86-.3-2.68-.3h-.46c-.83,0-1.68.06-2.57.18-.89.12-1.74.34-2.57.66s-1.57.76-2.25,1.31c-.67.55-1.18,1.27-1.51,2.16h-4.49c.15-1.19.59-2.28,1.31-3.26.72-.98,1.67-1.83,2.84-2.54,1.18-.72,2.54-1.28,4.08-1.67,1.54-.4,3.19-.6,4.93-.6h.37c2.38,0,4.42.28,6.1.83,1.68.55,3.06,1.39,4.13,2.52,1.07,1.13,1.85,2.57,2.34,4.31.49,1.74.75,3.81.78,6.19v11.74h-4.27v-11.42l-4.72-.05c.92,1.25,1.38,2.81,1.38,4.68ZM158.82,108.43c.03,1.47.46,2.58,1.28,3.33s2.15,1.12,3.99,1.12h1.56c1.77,0,3.07-.37,3.9-1.1s1.27-1.85,1.33-3.35c-.06-1.5-.49-2.6-1.28-3.3-.8-.7-2.11-1.05-3.94-1.05h-1.56c-1.84,0-3.16.35-3.99,1.05-.83.7-1.25,1.8-1.28,3.3Z"/>
    <path class="cls-1" d="M217.25,108.89c0,2.29-.69,3.98-2.06,5.05-1.38,1.07-3.13,1.61-5.27,1.61h-20.5v-24.31h18.94c1.13,0,2.17.14,3.12.41s1.76.7,2.43,1.26c.67.57,1.2,1.29,1.58,2.18s.57,1.93.57,3.12c-.03,1.38-.28,2.45-.76,3.21-.47.77-1.15,1.33-2.04,1.7,1.16.34,2.11.99,2.84,1.97.73.98,1.12,2.25,1.15,3.81ZM193.68,101.82l13.53.05c1.38-.03,2.48-.26,3.3-.69s1.25-1.31,1.28-2.66c0-.86-.14-1.52-.41-1.99-.28-.47-.64-.83-1.1-1.05-.46-.23-1-.37-1.63-.41s-1.29-.07-1.99-.07h-12.98v6.83ZM193.68,111.78h14.81c1.56,0,2.69-.21,3.39-.64s1.07-1.28,1.1-2.57c-.03-1.25-.39-2.07-1.08-2.45-.69-.38-1.8-.57-3.33-.57h-14.9v6.24Z"/>
    <path class="cls-1" d="M244.91,94.53l-15.41,21.01h-6.97v-24.31h4.27v20.82l15.41-20.82h6.97v24.31h-4.26v-21.01Z"/>
    <path class="cls-1" d="M275.5,108.75c-.03,2.6-.83,4.57-2.41,5.92s-3.86,2.02-6.86,2.02h-1.56c-3,0-5.32-.68-6.97-2.04s-2.51-3.43-2.57-6.21c0-2.72.84-4.73,2.52-6.03,1.68-1.3,4.02-1.95,7.02-1.95h14.08c-.15-1.35-.54-2.45-1.15-3.33s-1.33-1.56-2.15-2.06-1.72-.86-2.68-1.06c-.96-.2-1.86-.3-2.68-.3h-.46c-.83,0-1.68.06-2.57.18-.89.12-1.74.34-2.57.66s-1.57.76-2.25,1.31c-.67.55-1.18,1.27-1.51,2.16h-4.49c.15-1.19.59-2.28,1.31-3.26.72-.98,1.67-1.83,2.84-2.54,1.18-.72,2.54-1.28,4.08-1.67,1.54-.4,3.19-.6,4.93-.6h.37c2.38,0,4.42.28,6.1.83,1.68.55,3.06,1.39,4.13,2.52,1.07,1.13,1.85,2.57,2.34,4.31.49,1.74.75,3.81.78,6.19v11.74h-4.27v-11.42l-4.72-.05c.92,1.25,1.38,2.81,1.38,4.68ZM259.4,108.43c.03,1.47.46,2.58,1.28,3.33s2.15,1.12,3.99,1.12h1.56c1.77,0,3.07-.37,3.9-1.1s1.27-1.85,1.33-3.35c-.06-1.5-.49-2.6-1.28-3.3-.8-.7-2.11-1.05-3.94-1.05h-1.56c-1.84,0-3.16.35-3.99,1.05-.83.7-1.25,1.8-1.28,3.3Z"/>
  </g>
  <g>
    <path class="cls-1" d="M158.23,33.9c4.11,1.15,8.25,1.41,12.22.89.58-.08,1.01-.58,1.01-1.17v-8.79c0-1.04-1.24-1.55-1.99-.83-3.31,3.19-7.13,5.74-11.39,7.71-.98.45-.89,1.89.15,2.18Z"/>
    <path class="cls-1" d="M168.7,45.42c-5.75.33-11.2-.55-16.57-2.59-1.04-.39-1.98.7-1.44,1.67,4.25,7.64,11,13.03,19.38,14.79.72.15,1.39-.42,1.39-1.15v-11.64c0-.69-.59-1.22-1.28-1.16-.49.04-.99.06-1.48.08Z"/>
    <path class="cls-1" d="M124.85,25.92c-3.99-1.11-8.14-1.43-12.18-.93-.58.07-1.02.58-1.02,1.17v8.8c0,1.03,1.23,1.55,1.97.83,3.28-3.16,7.07-5.73,11.37-7.7.98-.45.9-1.89-.14-2.18Z"/>
    <path class="cls-1" d="M128.63,40.43c.38-1.01-.68-1.98-1.62-1.46-5.51,3.03-9.92,7.54-12.74,13.14-.99,1.97-1.7,4.08-2.16,6.26-.15.74.39,1.43,1.14,1.43h11.69c.69,0,1.22-.59,1.16-1.28-.53-6.05.3-12.25,2.53-18.1Z"/>
    <path class="cls-1" d="M154.48,19.36c-.39,1.03.7,1.97,1.67,1.43,5.26-2.9,9.52-7.14,12.38-12.52,1.15-2.16,1.96-4.48,2.46-6.89.15-.72-.42-1.38-1.15-1.38h-11.67c-.69,0-1.22.59-1.16,1.28.52,6.04-.31,12.23-2.53,18.08Z"/>
    <path class="cls-1" d="M137.58,46.6c-1.11,4-1.43,8.15-.92,12.2.07.58.58,1.02,1.17,1.02h8.82c1.03,0,1.55-1.23.83-1.97-3.17-3.28-5.75-7.08-7.72-11.38-.45-.98-1.89-.9-2.18.14Z"/>
    <path class="cls-1" d="M145.55,13.15c1.1-3.98,1.42-8.1.91-12.13-.07-.58-.58-1.02-1.17-1.02h-8.82c-1.04,0-1.55,1.24-.83,1.99,3.17,3.29,5.81,7.11,7.71,11.29.45.99,1.9.92,2.2-.13Z"/>
    <path class="cls-1" d="M131.02,16.97c1.03.39,1.97-.7,1.44-1.67-2.87-5.21-7.07-9.41-12.28-12.25-2.3-1.25-4.68-2.09-7.15-2.59-.71-.14-1.38.43-1.38,1.15v11.68c0,.69.59,1.22,1.28,1.16,6.06-.53,12.26.31,18.09,2.53Z"/>
  </g>
</svg>