<?xml version="1.0" encoding="UTF-8"?>
<svg id="_Слой_1" data-name="Слой 1" xmlns="http://www.w3.org/2000/svg" viewBox="0 0 215.58 62.78">
  <defs>
    <style>
      .cls-1 {
        fill: #1c2848;
      }
    </style>
  </defs>
  <g>
    <path class="cls-1" d="M91.29,15.78v9.91h-4.27V1.38h4.27v10.64h10.46l6.83-10.64h5l-7.93,12.11,9.54,12.2h-5.23l-7.8-9.91h-10.87Z"/>
    <path class="cls-1" d="M139.22,18.9c-.03,2.6-.84,4.57-2.41,5.92-1.58,1.35-3.86,2.02-6.86,2.02h-1.56c-3,0-5.32-.68-6.97-2.04s-2.51-3.43-2.57-6.21c0-2.72.84-4.73,2.52-6.03,1.68-1.3,4.02-1.95,7.02-1.95h14.08c-.15-1.35-.54-2.45-1.15-3.33-.61-.87-1.33-1.56-2.15-2.06-.83-.51-1.72-.86-2.68-1.06-.96-.2-1.86-.3-2.68-.3h-.46c-.83,0-1.68.06-2.57.18-.89.12-1.74.34-2.57.66-.83.32-1.58.76-2.25,1.31-.67.55-1.18,1.27-1.51,2.16h-4.5c.15-1.19.59-2.28,1.31-3.26.72-.98,1.67-1.83,2.84-2.55,1.18-.72,2.54-1.28,4.08-1.67,1.54-.4,3.19-.6,4.93-.6h.37c2.38,0,4.42.27,6.1.83,1.68.55,3.06,1.39,4.13,2.52s1.85,2.57,2.34,4.31.75,3.81.78,6.19v11.74h-4.27v-11.42l-4.72-.05c.92,1.25,1.38,2.81,1.38,4.68ZM123.12,18.57c.03,1.47.46,2.58,1.29,3.32.83.75,2.15,1.12,3.99,1.12h1.56c1.77,0,3.07-.37,3.9-1.1s1.27-1.85,1.33-3.35c-.06-1.5-.49-2.6-1.28-3.3-.8-.7-2.11-1.06-3.94-1.06h-1.56c-1.84,0-3.16.35-3.99,1.06-.83.7-1.25,1.8-1.29,3.3Z"/>
    <path class="cls-1" d="M168.94,26.6c-2.17.03-4.2-.27-6.08-.92-1.88-.64-3.51-1.59-4.88-2.84v10.69l-4.27-.05V1.38h4.27l-.23,2.98c1.38-1.31,3-2.34,4.88-3.07,1.88-.73,3.94-1.1,6.17-1.1,2.08,0,4.01.27,5.78.8,1.77.54,3.31,1.34,4.61,2.41,1.3,1.07,2.32,2.42,3.07,4.06.75,1.64,1.14,3.57,1.17,5.8,0,2.29-.37,4.28-1.1,5.96-.73,1.68-1.74,3.07-3.03,4.17-1.29,1.1-2.82,1.91-4.59,2.43-1.77.52-3.7.78-5.78.78ZM158.02,13.39c.03,1.68.31,3.1.85,4.27s1.27,2.11,2.2,2.84c.93.73,2.05,1.27,3.35,1.61,1.3.34,2.73.5,4.29.5s2.93-.17,4.2-.5c1.27-.34,2.35-.87,3.26-1.61.9-.73,1.61-1.68,2.11-2.84.51-1.16.77-2.58.8-4.27-.03-1.68-.3-3.11-.8-4.29-.5-1.18-1.2-2.14-2.09-2.89-.89-.75-1.96-1.29-3.21-1.63s-2.64-.5-4.17-.5-2.99.18-4.29.53c-1.3.35-2.43.9-3.39,1.65s-1.71,1.71-2.25,2.89-.82,2.59-.85,4.24Z"/>
    <path class="cls-1" d="M213.33,17.7c-.22,1.53-.71,2.87-1.49,4.01s-1.77,2.1-2.98,2.87c-1.21.77-2.59,1.34-4.15,1.72-1.56.38-3.24.57-5.05.57-2.2,0-4.18-.27-5.94-.8-1.76-.53-3.26-1.35-4.52-2.45-1.25-1.1-2.22-2.49-2.89-4.17s-1.02-3.65-1.06-5.92c0-2.26.34-4.24,1.01-5.94s1.63-3.1,2.87-4.22c1.24-1.12,2.74-1.96,4.52-2.52,1.77-.57,3.75-.85,5.92-.85,1.8,0,3.49.2,5.07.6,1.57.4,2.97.98,4.2,1.74,1.22.76,2.23,1.72,3.03,2.87.79,1.15,1.3,2.48,1.51,4.01h-4.59c-.18-.89-.54-1.67-1.08-2.34-.54-.67-1.21-1.24-2.02-1.7-.81-.46-1.74-.81-2.8-1.05-1.05-.24-2.18-.37-3.37-.37-3.24.03-5.69.83-7.34,2.38s-2.51,4.01-2.57,7.34c.06,3.3.94,5.73,2.64,7.29s4.17,2.34,7.41,2.34c2.41,0,4.45-.44,6.1-1.33,1.65-.89,2.66-2.25,3.03-4.08h4.54Z"/>
  </g>
  <g>
    <path class="cls-1" d="M107.39,54.84c-.03,2.6-.83,4.57-2.41,5.91-1.57,1.35-3.86,2.02-6.86,2.02h-1.56c-3,0-5.32-.68-6.97-2.04s-2.51-3.43-2.57-6.21c0-2.72.84-4.73,2.52-6.03,1.68-1.3,4.02-1.95,7.02-1.95h14.08c-.15-1.35-.54-2.45-1.15-3.33-.61-.87-1.33-1.56-2.15-2.06-.83-.51-1.72-.86-2.68-1.06s-1.86-.3-2.68-.3h-.46c-.83,0-1.68.06-2.57.18-.89.12-1.74.34-2.57.66-.83.32-1.57.76-2.25,1.31-.67.55-1.18,1.27-1.51,2.16h-4.49c.15-1.19.59-2.28,1.3-3.26.72-.98,1.67-1.83,2.84-2.55,1.18-.72,2.54-1.28,4.08-1.67s3.19-.6,4.93-.6h.37c2.38,0,4.42.28,6.1.83,1.68.55,3.06,1.39,4.13,2.52,1.07,1.13,1.85,2.57,2.34,4.31s.75,3.81.78,6.19v11.74h-4.27v-11.42l-4.72-.05c.92,1.25,1.38,2.81,1.38,4.68ZM91.29,54.52c.03,1.47.46,2.58,1.28,3.32.83.75,2.15,1.12,3.99,1.12h1.56c1.77,0,3.07-.37,3.9-1.1s1.27-1.85,1.33-3.35c-.06-1.5-.49-2.6-1.28-3.3-.8-.7-2.11-1.06-3.95-1.06h-1.56c-1.84,0-3.16.35-3.99,1.06-.83.7-1.25,1.8-1.28,3.3Z"/>
    <path class="cls-1" d="M149.72,54.98c0,2.3-.69,3.98-2.06,5.05s-3.14,1.61-5.28,1.61h-20.5v-24.31h18.94c1.13,0,2.17.14,3.12.41.95.28,1.76.7,2.43,1.26.67.57,1.2,1.29,1.58,2.18.38.89.57,1.93.57,3.12-.03,1.38-.28,2.45-.76,3.21-.47.77-1.15,1.33-2.04,1.7,1.16.34,2.11,1,2.84,1.97s1.12,2.25,1.15,3.81ZM126.15,47.92l13.53.05c1.38-.03,2.48-.26,3.3-.69s1.25-1.31,1.28-2.66c0-.85-.14-1.52-.41-1.99-.28-.47-.64-.83-1.1-1.06-.46-.23-1-.37-1.63-.41s-1.29-.07-1.99-.07h-12.98v6.83ZM126.15,57.87h14.81c1.56,0,2.69-.21,3.39-.64.7-.43,1.07-1.29,1.1-2.57-.03-1.25-.39-2.07-1.08-2.45-.69-.38-1.8-.57-3.32-.57h-14.91v6.24Z"/>
    <path class="cls-1" d="M177.38,40.63l-15.41,21h-6.97v-24.31h4.27v20.82l15.41-20.82h6.97v24.31h-4.26v-21Z"/>
    <path class="cls-1" d="M207.97,54.84c-.03,2.6-.83,4.57-2.41,5.91-1.57,1.35-3.86,2.02-6.86,2.02h-1.56c-3,0-5.32-.68-6.97-2.04s-2.51-3.43-2.57-6.21c0-2.72.84-4.73,2.52-6.03,1.68-1.3,4.02-1.95,7.02-1.95h14.08c-.15-1.35-.54-2.45-1.15-3.33-.61-.87-1.33-1.56-2.15-2.06-.83-.51-1.72-.86-2.68-1.06s-1.86-.3-2.68-.3h-.46c-.83,0-1.68.06-2.57.18-.89.12-1.74.34-2.57.66-.83.32-1.57.76-2.25,1.31-.67.55-1.18,1.27-1.51,2.16h-4.49c.15-1.19.59-2.28,1.3-3.26.72-.98,1.67-1.83,2.84-2.55,1.18-.72,2.54-1.28,4.08-1.67s3.19-.6,4.93-.6h.37c2.38,0,4.42.28,6.1.83,1.68.55,3.06,1.39,4.13,2.52,1.07,1.13,1.85,2.57,2.34,4.31s.75,3.81.78,6.19v11.74h-4.27v-11.42l-4.72-.05c.92,1.25,1.38,2.81,1.38,4.68ZM191.87,54.52c.03,1.47.46,2.58,1.28,3.32.83.75,2.15,1.12,3.99,1.12h1.56c1.77,0,3.07-.37,3.9-1.1s1.27-1.85,1.33-3.35c-.06-1.5-.49-2.6-1.28-3.3-.8-.7-2.11-1.06-3.95-1.06h-1.56c-1.84,0-3.16.35-3.99,1.06-.83.7-1.25,1.8-1.28,3.3Z"/>
  </g>
  <g>
    <path class="cls-1" d="M48.89,35.58c4.31,1.2,8.66,1.48,12.83.94.61-.08,1.06-.61,1.06-1.23v-9.22c0-1.09-1.3-1.63-2.09-.87-3.47,3.34-7.48,6.02-11.96,8.09-1.03.48-.93,1.99.16,2.29Z"/>
    <path class="cls-1" d="M59.88,47.67c-6.03.35-11.76-.57-17.39-2.71-1.09-.41-2.08.74-1.51,1.76,4.47,8.02,11.55,13.67,20.34,15.52.75.16,1.45-.44,1.45-1.21v-12.22c0-.72-.62-1.28-1.34-1.22-.52.04-1.03.07-1.55.08Z"/>
    <path class="cls-1" d="M13.85,27.2c-4.19-1.16-8.54-1.5-12.79-.97C.46,26.31,0,26.84,0,27.46v9.24c0,1.08,1.29,1.63,2.07.88,3.44-3.32,7.42-6.02,11.93-8.08,1.03-.47.94-1.99-.15-2.29Z"/>
    <path class="cls-1" d="M17.83,42.44c.4-1.06-.71-2.07-1.7-1.53-5.78,3.18-10.42,7.91-13.37,13.79-1.04,2.07-1.79,4.28-2.26,6.57-.16.77.41,1.5,1.2,1.5h12.27c.72,0,1.28-.62,1.21-1.34-.55-6.35.32-12.86,2.66-19Z"/>
    <path class="cls-1" d="M44.95,20.32c-.41,1.08.74,2.06,1.75,1.51,5.52-3.05,9.99-7.49,12.99-13.14,1.21-2.27,2.05-4.7,2.58-7.23C62.43.7,61.84,0,61.07,0h-12.25c-.72,0-1.28.62-1.21,1.34.55,6.34-.32,12.84-2.65,18.97Z"/>
    <path class="cls-1" d="M27.21,48.91c-1.17,4.2-1.5,8.55-.97,12.81.08.61.61,1.07,1.23,1.07h9.25c1.08,0,1.63-1.29.88-2.07-3.32-3.44-6.04-7.43-8.1-11.95-.47-1.03-1.98-.95-2.29.15Z"/>
    <path class="cls-1" d="M35.58,13.8c1.15-4.18,1.49-8.51.96-12.73C36.46.45,35.93,0,35.31,0h-9.26c-1.09,0-1.63,1.3-.87,2.08,3.33,3.46,6.1,7.46,8.1,11.85.47,1.04,2,.97,2.3-.13Z"/>
    <path class="cls-1" d="M20.33,17.81c1.08.41,2.07-.74,1.51-1.75-3.01-5.46-7.42-9.88-12.89-12.86C6.54,1.88,4.03,1,1.44.48.69.33,0,.93,0,1.69v12.26c0,.72.62,1.28,1.34,1.21,6.36-.55,12.87.32,18.99,2.65Z"/>
  </g>
</svg>