<svg width="22" height="22" viewBox="0 0 22 22" fill="none" xmlns="http://www.w3.org/2000/svg">
<path d="M16.25 5.75002V6.40627H16.9062V5.75002H16.25ZM4.93719 6.40627H16.25V5.09377H4.93719V6.40627ZM16.9062 5.75002V4.26778H15.5937V5.75002H16.9062ZM14.1597 1.88572L4.71184 3.23542L4.89745 4.53472L14.3453 3.18502L14.1597 1.88572ZM4.71184 3.23542C3.92683 3.34756 3.34375 4.01986 3.34375 4.81283H4.65625C4.65625 4.67302 4.75905 4.5545 4.89745 4.53472L4.71184 3.23542ZM16.9062 4.26778C16.9062 2.80346 15.6093 1.67863 14.1597 1.88572L14.3453 3.18502C15.0043 3.0909 15.5937 3.60218 15.5937 4.26778H16.9062ZM4.93719 5.09377C4.78203 5.09377 4.65625 4.96799 4.65625 4.81283H3.34375C3.34375 5.69286 4.05716 6.40627 4.93719 6.40627V5.09377Z" fill="#545873"/>
<path d="M7.5 11H14.5M7.5 14.0625H12.3125M4 5.75V17.125C4 18.5748 5.17526 19.75 6.625 19.75H15.375C16.8248 19.75 18 18.5748 18 17.125V12.75M4 5.75V4.875M4 5.75H15.375C16.8248 5.75 18 6.92526 18 8.375V9.25" stroke="#545873" stroke-width="1.13514" stroke-linecap="round"/>
</svg>
